<?xml version="1.0" encoding="UTF-8"?>
<!DOCTYPE svg PUBLIC "-//W3C//DTD SVG 1.1//EN" "http://www.w3.org/Graphics/SVG/1.1/DTD/svg11.dtd">
<!-- Creator: CorelDRAW 2021.5 -->
<svg xmlns="http://www.w3.org/2000/svg" xml:space="preserve" width="0.896in" height="1in" version="1.1" style="shape-rendering:geometricPrecision; text-rendering:geometricPrecision; image-rendering:optimizeQuality; fill-rule:evenodd; clip-rule:evenodd"
viewBox="0 0 132.4 147.77"
 xmlns:xlink="http://www.w3.org/1999/xlink"
 xmlns:xodm="http://www.corel.com/coreldraw/odm/2003">
 <defs>
  <style type="text/css">
   <![CDATA[
    .fil0 {fill:white}
   ]]>
  </style>
 </defs>
 <g id="Layer_x0020_1">
  <metadata id="CorelCorpID_0Corel-Layer"/>
  <path class="fil0" d="M3.2 63.75l12.7 -1.57 -6.6 38.41 44.9 -0.01c-0.38,0.48 -1.35,0.72 -1.9,0.9 -5.14,1.71 -28.48,9.92 -30.49,10.34 0.21,5.31 0.56,10.62 0.85,15.92 0.17,3.1 0.33,13.5 0.98,15.75l42.7 4.29c1.42,-7.83 2.58,-15.73 3.84,-23.52 0.49,-3.01 3.35,-22.38 3.95,-23.52l35.11 0.05 -1.75 -37.67 -48.3 -4.69 67.37 -7.44 5.83 -36.89 -132.4 -14.09 3.2 63.75z"/>
 </g>
</svg>
